<svg xmlns="http://www.w3.org/2000/svg" shape-rendering="geometricPrecision" text-rendering="geometricPrecision" image-rendering="optimizeQuality" fill-rule="evenodd" clip-rule="evenodd" viewBox="0 0 512 512"><g fill-rule="nonzero"><path d="M245.494 512h21.318c115.733 0 173.609 0 209.554-35.942C512.307 440.115 512 382.26 512 266.813v-21.626c0-115.424 0-173.301-35.634-209.246C440.728 0 382.545 0 266.812 0h-21.318C129.741 0 71.885 0 35.942 35.941 0 71.886 0 129.721 0 245.187v21.626C0 382.26 0 440.115 35.942 476.058 71.885 512 129.741 512 245.494 512z"/><path fill="#FEFEFE" d="M274.748 369.15c-115.447 0-185.509-80.097-188.233-213.198h58.471c1.823 97.773 46.305 139.266 80.404 147.723V155.952h56.055v84.358c32.89-3.645 67.297-42.024 78.889-84.358h55.112c-8.83 52.082-46.286 90.462-72.786 106.293 26.5 12.8 69.139 46.305 85.584 106.905h-60.599c-12.801-40.51-44.175-71.885-86.2-76.145v76.145h-6.697z"/></g></svg>