<svg xmlns="http://www.w3.org/2000/svg" shape-rendering="geometricPrecision" text-rendering="geometricPrecision" image-rendering="optimizeQuality" fill-rule="evenodd" clip-rule="evenodd" viewBox="0 0 443 511.478"><path d="M392.462 204.641c39.106-69.369 34.358-116.054-30.418-131.698 10.418-16.008 21.072-28.314 31.988-35.944 10.271-7.17 20.904-10.104 31.954-7.842 7.668 1.562 15.165-3.389 16.727-11.058 1.561-7.669-3.389-15.166-11.059-16.727-19.243-3.936-37.114.718-53.846 12.4-14.895 10.409-28.693 26.439-41.609 46.857-37.107-29.338-75.314-34.598-115.999 14.818-17.652 26.757-40.839 48.908-68.737 67.128-46.534 30.397-72.754 32.431-112.923 80.716-49.42 59.412-52.083 126.519-3.518 202.06 41.476 59.12 101.822 85.22 176.563 86.127 80.484-2.851 124.282-41.592 149.126-98.871 33.855-78.053 7.746-88.062 16.319-154.094 2.331-17.957 7.385-35.915 15.432-53.872zM82.623 254.612c4.508-6.413 13.368-7.953 19.781-3.445 6.413 4.507 7.953 13.368 3.445 19.781-13.755 19.471-21.652 39.571-22.744 60.38-1.097 20.899 4.619 43.02 18.082 66.509 3.897 6.809 1.531 15.497-5.278 19.394-6.808 3.897-15.497 1.531-19.394-5.278-16.262-28.379-23.14-55.7-21.755-82.07 1.389-26.453 11.058-51.485 27.863-75.271z"/></svg>