<svg xmlns="http://www.w3.org/2000/svg" shape-rendering="geometricPrecision" text-rendering="geometricPrecision" image-rendering="optimizeQuality" fill-rule="evenodd" clip-rule="evenodd" viewBox="0 0 334 511.79"><path fill-rule="nonzero" d="M104.241 8.353H84.144l1.981 31.853c1.23 20.172 1.323 21.7-3.209 41.648-7.383 32.473-1.362 50.711 4.696 69.063 4.319 13.08 8.657 26.22 8.657 44.358v12.151c23.532.564 47.068.835 70.608.828a3125.07 3125.07 0 0070.84-.833v-12.146c0-18.138 4.338-31.278 8.657-44.358 6.058-18.352 12.079-36.59 4.696-69.063-4.533-19.952-4.439-21.477-3.209-41.656l1.98-31.845h-20.17c-5.631 21.404-17.611 36.259-32.08 44.704a61.174 61.174 0 01-31.587 8.342 61.242 61.242 0 01-31.277-9.014c-14.093-8.624-25.513-23.363-30.486-44.032zm52.027 494.707V252.351a4.176 4.176 0 118.352 0v251.104c1.325.049 2.549.005 3.827.034 24.457-.896 51.859-3.801 80.371-8.977a611.174 611.174 0 0046.114-10.223c-7.618-39.95-16.333-79.746-27.699-119.131-11.727-40.637-26.302-80.953-45.437-120.73a4.16 4.16 0 017.505-3.589c19.338 40.199 34.07 80.952 45.926 122.036 11.422 39.58 20.158 79.371 27.77 119.232a570.815 570.815 0 0022.088-6.622c-8.112-44.571-18.505-88.597-32.316-131.795-13.93-43.571-31.351-86.326-53.43-127.982a3144.2 3144.2 0 01-72.462.866 2911.32 2911.32 0 01-72.23-.863c-22.08 41.655-39.5 84.41-53.43 127.979-13.812 43.198-24.205 87.224-32.316 131.795a572.963 572.963 0 0023.215 6.935c7.602-39.99 15.912-79.881 26.907-119.513 11.393-41.067 25.671-81.825 45.032-122.068a4.16 4.16 0 017.505 3.589c-19.115 39.731-33.232 80.041-44.51 120.698-10.969 39.534-19.265 79.434-26.866 119.459a610.972 610.972 0 0044.984 9.927c24.961 4.532 49.072 7.322 71.1 8.548zm145.222-11.893a4.17 4.17 0 01-1.32.356 621.526 621.526 0 01-49.884 11.178c-28.73 5.215-56.348 8.159-81.033 9.089l-4.59-.003c-24.666-.933-52.261-3.876-80.963-9.086-26.536-4.817-53.967-11.553-80.845-20.408l.004-.012a4.162 4.162 0 01-2.793-4.686c8.262-46.117 18.921-91.687 33.223-136.418 14.212-44.451 32.016-88.058 54.627-130.529v-15.373c0-16.815-4.125-29.309-8.231-41.747-6.417-19.437-12.793-38.753-4.894-73.501 4.267-18.782 4.18-20.228 3.015-39.331L75.567 4.72A4.176 4.176 0 0179.709 0h27.87v.017a4.159 4.159 0 014.078 3.344c4.001 19.944 14.423 33.964 27.41 41.912a52.954 52.954 0 0027.034 7.807c9.372.11 18.805-2.287 27.281-7.234 13.269-7.743 24.184-21.778 28.894-42.288A4.177 4.177 0 01226.406 0h27.87v.01l.245.007a4.167 4.167 0 013.915 4.404l-2.256 36.266c-1.165 19.111-1.253 20.555 3.015 39.34 7.899 34.748 1.522 54.064-4.894 73.501-4.106 12.438-8.231 24.932-8.231 41.747v15.373c22.611 42.471 40.415 86.078 54.627 130.529 14.267 44.624 24.909 90.084 33.164 136.088a4.173 4.173 0 01-2.73 5.028 574.371 574.371 0 01-29.641 8.874z"/></svg>